<?xml version="1.0" encoding="UTF-8" standalone="no"?>
<!-- Created with Inkscape (http://www.inkscape.org/) -->

<svg
   xmlns:dc="http://purl.org/dc/elements/1.1/"
   xmlns:cc="http://creativecommons.org/ns#"
   xmlns:rdf="http://www.w3.org/1999/02/22-rdf-syntax-ns#"
   xmlns:svg="http://www.w3.org/2000/svg"
   xmlns="http://www.w3.org/2000/svg"
   xmlns:sodipodi="http://sodipodi.sourceforge.net/DTD/sodipodi-0.dtd"
   xmlns:inkscape="http://www.inkscape.org/namespaces/inkscape"
   width="60"
   height="60"
   viewBox="0 0 60.000001 60.000001"
   id="svg2"
   version="1.1"
   inkscape:version="0.91 r"
   sodipodi:docname="settings.svg">
  <defs
     id="defs4" />
  <sodipodi:namedview
     id="base"
     pagecolor="#dadada"
     bordercolor="#666666"
     borderopacity="1"
     inkscape:pageopacity="0"
     inkscape:pageshadow="2"
     inkscape:zoom="8"
     inkscape:cx="52.202301"
     inkscape:cy="23.24864"
     inkscape:document-units="px"
     inkscape:current-layer="layer1"
     showgrid="true"
     units="px"
     inkscape:window-width="1920"
     inkscape:window-height="1152"
     inkscape:window-x="0"
     inkscape:window-y="436"
     inkscape:window-maximized="1">
    <inkscape:grid
       type="xygrid"
       id="grid3338" />
  </sodipodi:namedview>
  <metadata
     id="metadata7">
    <rdf:RDF>
      <cc:Work
         rdf:about="">
        <dc:format>image/svg+xml</dc:format>
        <dc:type
           rdf:resource="http://purl.org/dc/dcmitype/StillImage" />
        <dc:title />
      </cc:Work>
    </rdf:RDF>
  </metadata>
  <g
     inkscape:label="Layer 1"
     inkscape:groupmode="layer"
     id="layer1"
     transform="translate(0,-992.36216)">
    <path
       style="fill:none;fill-opacity:1;stroke:#000000;stroke-width:2;stroke-linecap:round;stroke-linejoin:round;stroke-miterlimit:4;stroke-dasharray:none;stroke-dashoffset:0;stroke-opacity:1"
       d="m 36.236896,997.99058 a 6.2948995,6.2933122 0 0 1 -6.228508,5.49192 6.2948995,6.2933122 0 0 1 -6.238344,-5.45996 25.179598,25.173249 0 0 0 -6.585055,2.71396 6.2948995,6.2933122 0 0 1 -0.533591,8.2723 6.2948995,6.2933122 0 0 1 -8.2768083,0.5457 25.179598,25.173249 0 0 0 -2.7491009,6.5736 6.2948995,6.2933122 0 0 1 5.4908242,6.2097 l 0,0.025 a 6.2948995,6.2933122 0 0 1 -5.4563987,6.2319 25.179598,25.173249 0 0 0 2.7146754,6.576 6.2948995,6.2933122 0 0 1 8.2546783,0.5236 l 0.01721,0.02 a 6.2948995,6.2933122 0 0 1 0.550804,8.2599 25.179598,25.173249 0 0 0 6.567843,2.746 6.2948995,6.2933122 0 0 1 6.216213,-5.4772 6.2948995,6.2933122 0 0 1 6.255556,5.4895 25.179598,25.173249 0 0 0 6.580138,-2.741 6.2948995,6.2933122 0 0 1 0.523755,-8.2649 6.2948995,6.2933122 0 0 1 8.301398,-0.5433 25.179598,25.173249 0 0 0 2.724512,-6.5883 6.2948995,6.2933122 0 0 1 -5.480989,-6.2196 6.2948995,6.2933122 0 0 1 5.461318,-6.2417 25.179598,25.173249 0 0 0 -2.714676,-6.5834 6.2948995,6.2933122 0 0 1 -8.269433,-0.5285 6.2948995,6.2933122 0 0 1 -0.550804,-8.2797 25.179598,25.173249 0 0 0 -6.575219,-2.75082 z"
       id="path4279"
       inkscape:connector-curvature="0" />
    <path
       style="fill:none;fill-opacity:1;stroke:#000000;stroke-width:2;stroke-linecap:round;stroke-linejoin:round;stroke-miterlimit:4;stroke-dasharray:none;stroke-dashoffset:0;stroke-opacity:1"
       id="path4384"
       sodipodi:type="arc"
       sodipodi:cx="30"
       sodipodi:cy="1022.3622"
       sodipodi:rx="10"
       sodipodi:ry="10"
       sodipodi:start="0"
       sodipodi:end="6.2791536"
       sodipodi:open="true"
       d="m 40,1022.3622 a 10,10 0 0 1 -9.989921,10 10,10 0 0 1 -10.010059,-9.9799 10,10 0 0 1 9.969742,-10.0201 10,10 0 0 1 10.030157,9.9597" />
    <path
       style="fill:none;fill-opacity:1;stroke:#000000;stroke-width:1;stroke-linecap:round;stroke-linejoin:round;stroke-miterlimit:4;stroke-dasharray:none;stroke-dashoffset:0;stroke-opacity:1"
       id="path4386"
       sodipodi:type="arc"
       sodipodi:cx="30"
       sodipodi:cy="1022.3622"
       sodipodi:rx="15"
       sodipodi:ry="15"
       sodipodi:start="0"
       sodipodi:end="6.2791536"
       sodipodi:open="true"
       d="m 45,1022.3622 a 15,15 0 0 1 -14.984881,15 15,15 0 0 1 -15.015089,-14.9698 15,15 0 0 1 14.954613,-15.0301 15,15 0 0 1 15.045235,14.9394" />
  </g>
</svg>
